<mxfile host="app.diagrams.net" agent="Mozilla/5.0 (X11; Linux x86_64) AppleWebKit/537.36 (KHTML, like Gecko) Chrome/138.0.0.0 Safari/537.36" version="28.2.3" pages="3">
  <diagram id="UPKXK90yrtmYA2nd3gbm" name="Diagramme Activité">
    <mxGraphModel dx="1448" dy="568" grid="1" gridSize="10" guides="1" tooltips="1" connect="1" arrows="1" fold="1" page="1" pageScale="1" pageWidth="827" pageHeight="1169" math="0" shadow="0">
      <root>
        <mxCell id="0" />
        <mxCell id="1" parent="0" />
        <mxCell id="yR7tkj6IJm981keGcS-7-1" value="" style="ellipse;html=1;shape=endState;fillColor=#000000;strokeColor=#ff0000;" vertex="1" parent="1">
          <mxGeometry x="300" y="960" width="30" height="30" as="geometry" />
        </mxCell>
        <mxCell id="yR7tkj6IJm981keGcS-7-2" value="Affichage Page&lt;br&gt;du questionnaire" style="rounded=1;whiteSpace=wrap;html=1;" vertex="1" parent="1">
          <mxGeometry x="261.25" y="430" width="107.5" height="50" as="geometry" />
        </mxCell>
        <mxCell id="yR7tkj6IJm981keGcS-7-3" value="" style="endArrow=classic;html=1;rounded=0;exitX=0.5;exitY=1;exitDx=0;exitDy=0;" edge="1" parent="1" source="yR7tkj6IJm981keGcS-7-2" target="yR7tkj6IJm981keGcS-7-6">
          <mxGeometry width="50" height="50" relative="1" as="geometry">
            <mxPoint x="290" y="540" as="sourcePoint" />
            <mxPoint x="315" y="520" as="targetPoint" />
          </mxGeometry>
        </mxCell>
        <mxCell id="yR7tkj6IJm981keGcS-7-4" value="" style="edgeStyle=orthogonalEdgeStyle;rounded=0;orthogonalLoop=1;jettySize=auto;html=1;" edge="1" parent="1" source="yR7tkj6IJm981keGcS-7-6" target="yR7tkj6IJm981keGcS-7-9">
          <mxGeometry relative="1" as="geometry" />
        </mxCell>
        <mxCell id="yR7tkj6IJm981keGcS-7-5" value="OUI" style="edgeLabel;html=1;align=center;verticalAlign=middle;resizable=0;points=[];" vertex="1" connectable="0" parent="yR7tkj6IJm981keGcS-7-4">
          <mxGeometry x="0.2067" y="1" relative="1" as="geometry">
            <mxPoint as="offset" />
          </mxGeometry>
        </mxCell>
        <mxCell id="yR7tkj6IJm981keGcS-7-6" value="Le Questionnaire&amp;nbsp;&lt;div&gt;est-il rempli ?&lt;/div&gt;" style="rhombus;whiteSpace=wrap;html=1;" vertex="1" parent="1">
          <mxGeometry x="257.5" y="520" width="115" height="120" as="geometry" />
        </mxCell>
        <mxCell id="yR7tkj6IJm981keGcS-7-7" value="" style="endArrow=classic;html=1;rounded=0;exitX=0;exitY=0.5;exitDx=0;exitDy=0;entryX=0;entryY=0.5;entryDx=0;entryDy=0;" edge="1" parent="1" source="yR7tkj6IJm981keGcS-7-6" target="yR7tkj6IJm981keGcS-7-2">
          <mxGeometry width="50" height="50" relative="1" as="geometry">
            <mxPoint x="290" y="620" as="sourcePoint" />
            <mxPoint x="340" y="570" as="targetPoint" />
            <Array as="points">
              <mxPoint x="180" y="580" />
              <mxPoint x="180" y="455" />
            </Array>
          </mxGeometry>
        </mxCell>
        <mxCell id="yR7tkj6IJm981keGcS-7-8" value="NON&lt;div&gt;&lt;br&gt;&lt;/div&gt;" style="edgeLabel;html=1;align=center;verticalAlign=middle;resizable=0;points=[];" vertex="1" connectable="0" parent="yR7tkj6IJm981keGcS-7-7">
          <mxGeometry x="0.0101" y="1" relative="1" as="geometry">
            <mxPoint as="offset" />
          </mxGeometry>
        </mxCell>
        <mxCell id="yR7tkj6IJm981keGcS-7-9" value="Affichage du bouton de résultats" style="rounded=1;whiteSpace=wrap;html=1;" vertex="1" parent="1">
          <mxGeometry x="255" y="670" width="120" height="60" as="geometry" />
        </mxCell>
        <mxCell id="yR7tkj6IJm981keGcS-7-10" value="" style="edgeStyle=orthogonalEdgeStyle;rounded=0;orthogonalLoop=1;jettySize=auto;html=1;" edge="1" parent="1" target="yR7tkj6IJm981keGcS-7-11">
          <mxGeometry relative="1" as="geometry">
            <mxPoint x="315" y="730" as="sourcePoint" />
          </mxGeometry>
        </mxCell>
        <mxCell id="yR7tkj6IJm981keGcS-7-11" value="Clique sur le bouton des résultats" style="rounded=1;whiteSpace=wrap;html=1;" vertex="1" parent="1">
          <mxGeometry x="255" y="760" width="120" height="60" as="geometry" />
        </mxCell>
        <mxCell id="yR7tkj6IJm981keGcS-7-12" value="" style="edgeStyle=orthogonalEdgeStyle;rounded=0;orthogonalLoop=1;jettySize=auto;html=1;" edge="1" parent="1" target="yR7tkj6IJm981keGcS-7-14">
          <mxGeometry relative="1" as="geometry">
            <mxPoint x="315" y="820" as="sourcePoint" />
          </mxGeometry>
        </mxCell>
        <mxCell id="yR7tkj6IJm981keGcS-7-13" value="" style="edgeStyle=orthogonalEdgeStyle;rounded=0;orthogonalLoop=1;jettySize=auto;html=1;" edge="1" parent="1" source="yR7tkj6IJm981keGcS-7-14" target="yR7tkj6IJm981keGcS-7-1">
          <mxGeometry relative="1" as="geometry" />
        </mxCell>
        <mxCell id="yR7tkj6IJm981keGcS-7-14" value="Affichage page des résultats" style="rounded=1;whiteSpace=wrap;html=1;" vertex="1" parent="1">
          <mxGeometry x="255" y="850" width="120" height="60" as="geometry" />
        </mxCell>
        <mxCell id="yR7tkj6IJm981keGcS-7-15" value="" style="ellipse;html=1;shape=startState;fillColor=#000000;strokeColor=#ff0000;" vertex="1" parent="1">
          <mxGeometry x="707.5" y="40" width="30" height="30" as="geometry" />
        </mxCell>
        <mxCell id="yR7tkj6IJm981keGcS-7-16" value="" style="endArrow=classic;html=1;rounded=0;exitX=0.485;exitY=0.859;exitDx=0;exitDy=0;entryX=0.5;entryY=0;entryDx=0;entryDy=0;exitPerimeter=0;" edge="1" parent="1" source="yR7tkj6IJm981keGcS-7-15" target="yR7tkj6IJm981keGcS-7-21">
          <mxGeometry width="50" height="50" relative="1" as="geometry">
            <mxPoint x="697.5" y="180" as="sourcePoint" />
            <mxPoint x="722.5" y="100" as="targetPoint" />
          </mxGeometry>
        </mxCell>
        <mxCell id="yR7tkj6IJm981keGcS-7-17" value="Clique sur un questionnaire" style="rounded=1;whiteSpace=wrap;html=1;" vertex="1" parent="1">
          <mxGeometry x="261.25" y="350" width="107.5" height="50" as="geometry" />
        </mxCell>
        <mxCell id="yR7tkj6IJm981keGcS-7-18" value="" style="endArrow=classic;html=1;rounded=0;entryX=0.5;entryY=0;entryDx=0;entryDy=0;exitX=0.5;exitY=1;exitDx=0;exitDy=0;" edge="1" parent="1" source="yR7tkj6IJm981keGcS-7-17">
          <mxGeometry width="50" height="50" relative="1" as="geometry">
            <mxPoint x="314.8299999999999" y="400" as="sourcePoint" />
            <mxPoint x="314.8299999999999" y="430" as="targetPoint" />
          </mxGeometry>
        </mxCell>
        <mxCell id="yR7tkj6IJm981keGcS-7-19" value="" style="edgeStyle=orthogonalEdgeStyle;rounded=0;orthogonalLoop=1;jettySize=auto;html=1;entryX=0.5;entryY=0;entryDx=0;entryDy=0;" edge="1" parent="1" source="yR7tkj6IJm981keGcS-7-21" target="yR7tkj6IJm981keGcS-7-17">
          <mxGeometry relative="1" as="geometry">
            <mxPoint x="570" y="240" as="targetPoint" />
          </mxGeometry>
        </mxCell>
        <mxCell id="yR7tkj6IJm981keGcS-7-20" value="NON" style="edgeLabel;html=1;align=center;verticalAlign=middle;resizable=0;points=[];" vertex="1" connectable="0" parent="yR7tkj6IJm981keGcS-7-19">
          <mxGeometry x="-0.6015" relative="1" as="geometry">
            <mxPoint x="66" y="10" as="offset" />
          </mxGeometry>
        </mxCell>
        <mxCell id="yR7tkj6IJm981keGcS-7-21" value="L&#39;utilisateur est-il admin ?" style="rhombus;whiteSpace=wrap;html=1;" vertex="1" parent="1">
          <mxGeometry x="665" y="180" width="115" height="120" as="geometry" />
        </mxCell>
        <mxCell id="yR7tkj6IJm981keGcS-7-22" value="Clique sur le&amp;nbsp;&lt;div&gt;bouton &quot;ajout de questionnaire&quot; et&amp;nbsp;&lt;/div&gt;&lt;div&gt;remplissage du&amp;nbsp;&lt;/div&gt;&lt;div&gt;formulaire?&lt;/div&gt;" style="rhombus;whiteSpace=wrap;html=1;" vertex="1" parent="1">
          <mxGeometry x="890" y="160" width="160" height="160" as="geometry" />
        </mxCell>
        <mxCell id="yR7tkj6IJm981keGcS-7-23" value="" style="edgeStyle=orthogonalEdgeStyle;rounded=0;orthogonalLoop=1;jettySize=auto;html=1;" edge="1" parent="1" source="yR7tkj6IJm981keGcS-7-25" target="yR7tkj6IJm981keGcS-7-26">
          <mxGeometry relative="1" as="geometry" />
        </mxCell>
        <mxCell id="yR7tkj6IJm981keGcS-7-24" value="NON" style="edgeLabel;html=1;align=center;verticalAlign=middle;resizable=0;points=[];" vertex="1" connectable="0" parent="yR7tkj6IJm981keGcS-7-23">
          <mxGeometry x="-0.1636" y="-3" relative="1" as="geometry">
            <mxPoint y="7" as="offset" />
          </mxGeometry>
        </mxCell>
        <mxCell id="yR7tkj6IJm981keGcS-7-25" value="Clique sur voir un questionnaire&lt;span style=&quot;background-color: transparent; color: light-dark(rgb(0, 0, 0), rgb(255, 255, 255));&quot;&gt;&amp;nbsp;?&lt;/span&gt;" style="rhombus;whiteSpace=wrap;html=1;" vertex="1" parent="1">
          <mxGeometry x="1100" y="180" width="115" height="120" as="geometry" />
        </mxCell>
        <mxCell id="yR7tkj6IJm981keGcS-7-26" value="Clique sur&amp;nbsp;&lt;div&gt;supprimer un questionnaire?&lt;/div&gt;" style="rhombus;whiteSpace=wrap;html=1;" vertex="1" parent="1">
          <mxGeometry x="1270" y="180" width="115" height="120" as="geometry" />
        </mxCell>
        <mxCell id="yR7tkj6IJm981keGcS-7-27" value="" style="endArrow=classic;html=1;rounded=0;exitX=1;exitY=0.5;exitDx=0;exitDy=0;entryX=0;entryY=0.5;entryDx=0;entryDy=0;" edge="1" parent="1" source="yR7tkj6IJm981keGcS-7-21" target="yR7tkj6IJm981keGcS-7-22">
          <mxGeometry width="50" height="50" relative="1" as="geometry">
            <mxPoint x="860" y="120" as="sourcePoint" />
            <mxPoint x="861" y="234" as="targetPoint" />
          </mxGeometry>
        </mxCell>
        <mxCell id="yR7tkj6IJm981keGcS-7-28" value="OUI" style="edgeLabel;html=1;align=center;verticalAlign=middle;resizable=0;points=[];" vertex="1" connectable="0" parent="yR7tkj6IJm981keGcS-7-27">
          <mxGeometry x="-0.3673" y="-1" relative="1" as="geometry">
            <mxPoint x="16" y="9" as="offset" />
          </mxGeometry>
        </mxCell>
        <mxCell id="yR7tkj6IJm981keGcS-7-29" value="" style="endArrow=classic;html=1;rounded=0;exitX=1;exitY=0.5;exitDx=0;exitDy=0;entryX=0;entryY=0.5;entryDx=0;entryDy=0;" edge="1" parent="1" source="yR7tkj6IJm981keGcS-7-22" target="yR7tkj6IJm981keGcS-7-25">
          <mxGeometry width="50" height="50" relative="1" as="geometry">
            <mxPoint x="1030" y="190" as="sourcePoint" />
            <mxPoint x="1140" y="190" as="targetPoint" />
          </mxGeometry>
        </mxCell>
        <mxCell id="yR7tkj6IJm981keGcS-7-30" value="NON" style="edgeLabel;html=1;align=center;verticalAlign=middle;resizable=0;points=[];" vertex="1" connectable="0" parent="yR7tkj6IJm981keGcS-7-29">
          <mxGeometry x="-0.3673" y="-1" relative="1" as="geometry">
            <mxPoint x="4" y="9" as="offset" />
          </mxGeometry>
        </mxCell>
        <mxCell id="6B9bChOiJdNlk9qFFW37-1" value="Clique sur&amp;nbsp;&lt;div&gt;éditer le questionnaire ?&lt;/div&gt;" style="rhombus;whiteSpace=wrap;html=1;" vertex="1" parent="1">
          <mxGeometry x="1440" y="180" width="115" height="120" as="geometry" />
        </mxCell>
        <mxCell id="6B9bChOiJdNlk9qFFW37-4" value="" style="edgeStyle=orthogonalEdgeStyle;rounded=0;orthogonalLoop=1;jettySize=auto;html=1;exitX=1;exitY=0.5;exitDx=0;exitDy=0;" edge="1" parent="1" source="yR7tkj6IJm981keGcS-7-26">
          <mxGeometry relative="1" as="geometry">
            <mxPoint x="1530" y="290" as="sourcePoint" />
            <mxPoint x="1440" y="240" as="targetPoint" />
          </mxGeometry>
        </mxCell>
        <mxCell id="6B9bChOiJdNlk9qFFW37-5" value="NON" style="edgeLabel;html=1;align=center;verticalAlign=middle;resizable=0;points=[];" vertex="1" connectable="0" parent="6B9bChOiJdNlk9qFFW37-4">
          <mxGeometry x="-0.1636" y="-3" relative="1" as="geometry">
            <mxPoint y="7" as="offset" />
          </mxGeometry>
        </mxCell>
        <mxCell id="6B9bChOiJdNlk9qFFW37-6" value="" style="endArrow=classic;html=1;rounded=0;exitX=1;exitY=0.5;exitDx=0;exitDy=0;" edge="1" parent="1" source="6B9bChOiJdNlk9qFFW37-1">
          <mxGeometry width="50" height="50" relative="1" as="geometry">
            <mxPoint x="1580" y="330" as="sourcePoint" />
            <mxPoint x="720" y="110" as="targetPoint" />
            <Array as="points">
              <mxPoint x="1600" y="240" />
              <mxPoint x="1600" y="110" />
            </Array>
          </mxGeometry>
        </mxCell>
        <mxCell id="6B9bChOiJdNlk9qFFW37-7" value="NON" style="edgeLabel;html=1;align=center;verticalAlign=middle;resizable=0;points=[];" vertex="1" connectable="0" parent="6B9bChOiJdNlk9qFFW37-6">
          <mxGeometry x="-0.3673" y="-1" relative="1" as="geometry">
            <mxPoint x="129" y="141" as="offset" />
          </mxGeometry>
        </mxCell>
        <mxCell id="6B9bChOiJdNlk9qFFW37-8" value="Supprime le questionnaire" style="rounded=1;whiteSpace=wrap;html=1;" vertex="1" parent="1">
          <mxGeometry x="1273.75" y="360" width="107.5" height="50" as="geometry" />
        </mxCell>
        <mxCell id="6B9bChOiJdNlk9qFFW37-9" value="" style="edgeStyle=orthogonalEdgeStyle;rounded=0;orthogonalLoop=1;jettySize=auto;html=1;entryX=0.5;entryY=0;entryDx=0;entryDy=0;exitX=0.5;exitY=1;exitDx=0;exitDy=0;" edge="1" parent="1" source="yR7tkj6IJm981keGcS-7-26" target="6B9bChOiJdNlk9qFFW37-8">
          <mxGeometry relative="1" as="geometry">
            <mxPoint x="1250" y="310" as="sourcePoint" />
            <mxPoint x="1305" y="310" as="targetPoint" />
          </mxGeometry>
        </mxCell>
        <mxCell id="6B9bChOiJdNlk9qFFW37-10" value="OUI" style="edgeLabel;html=1;align=center;verticalAlign=middle;resizable=0;points=[];" vertex="1" connectable="0" parent="6B9bChOiJdNlk9qFFW37-9">
          <mxGeometry x="-0.1636" y="-3" relative="1" as="geometry">
            <mxPoint x="16" y="-5" as="offset" />
          </mxGeometry>
        </mxCell>
        <mxCell id="6B9bChOiJdNlk9qFFW37-11" value="Editer le questionnaire" style="rounded=1;whiteSpace=wrap;html=1;" vertex="1" parent="1">
          <mxGeometry x="1443.75" y="360" width="107.5" height="50" as="geometry" />
        </mxCell>
        <mxCell id="6B9bChOiJdNlk9qFFW37-12" value="" style="edgeStyle=orthogonalEdgeStyle;rounded=0;orthogonalLoop=1;jettySize=auto;html=1;entryX=0.5;entryY=0;entryDx=0;entryDy=0;exitX=0.5;exitY=1;exitDx=0;exitDy=0;" edge="1" parent="1" source="6B9bChOiJdNlk9qFFW37-1" target="6B9bChOiJdNlk9qFFW37-11">
          <mxGeometry relative="1" as="geometry">
            <mxPoint x="1497.25" y="300" as="sourcePoint" />
            <mxPoint x="1497.25" y="360" as="targetPoint" />
          </mxGeometry>
        </mxCell>
        <mxCell id="6B9bChOiJdNlk9qFFW37-13" value="OUI" style="edgeLabel;html=1;align=center;verticalAlign=middle;resizable=0;points=[];" vertex="1" connectable="0" parent="6B9bChOiJdNlk9qFFW37-12">
          <mxGeometry x="-0.1636" y="-3" relative="1" as="geometry">
            <mxPoint x="16" y="-5" as="offset" />
          </mxGeometry>
        </mxCell>
        <mxCell id="6B9bChOiJdNlk9qFFW37-16" value="" style="edgeStyle=orthogonalEdgeStyle;rounded=0;orthogonalLoop=1;jettySize=auto;html=1;exitX=0.5;exitY=1;exitDx=0;exitDy=0;" edge="1" parent="1" source="6B9bChOiJdNlk9qFFW37-8">
          <mxGeometry relative="1" as="geometry">
            <mxPoint x="1327.25" y="420" as="sourcePoint" />
            <mxPoint x="1600" y="240" as="targetPoint" />
            <Array as="points">
              <mxPoint x="1328" y="440" />
              <mxPoint x="1601" y="440" />
              <mxPoint x="1601" y="240" />
            </Array>
          </mxGeometry>
        </mxCell>
        <mxCell id="6B9bChOiJdNlk9qFFW37-18" value="" style="endArrow=none;html=1;rounded=0;entryX=0.5;entryY=1;entryDx=0;entryDy=0;" edge="1" parent="1" target="6B9bChOiJdNlk9qFFW37-11">
          <mxGeometry width="50" height="50" relative="1" as="geometry">
            <mxPoint x="1498" y="440" as="sourcePoint" />
            <mxPoint x="1340" y="360" as="targetPoint" />
          </mxGeometry>
        </mxCell>
        <mxCell id="6B9bChOiJdNlk9qFFW37-20" value="Affichage du questionnaire" style="rounded=1;whiteSpace=wrap;html=1;" vertex="1" parent="1">
          <mxGeometry x="1030" y="360" width="107.5" height="50" as="geometry" />
        </mxCell>
        <mxCell id="6B9bChOiJdNlk9qFFW37-21" value="" style="endArrow=classic;html=1;rounded=0;exitX=0.5;exitY=1;exitDx=0;exitDy=0;entryX=0;entryY=0.5;entryDx=0;entryDy=0;" edge="1" parent="1" source="yR7tkj6IJm981keGcS-7-22" target="6B9bChOiJdNlk9qFFW37-20">
          <mxGeometry width="50" height="50" relative="1" as="geometry">
            <mxPoint x="860" y="230" as="sourcePoint" />
            <mxPoint x="970" y="230" as="targetPoint" />
            <Array as="points">
              <mxPoint x="970" y="385" />
            </Array>
          </mxGeometry>
        </mxCell>
        <mxCell id="6B9bChOiJdNlk9qFFW37-22" value="OUI" style="edgeLabel;html=1;align=center;verticalAlign=middle;resizable=0;points=[];" vertex="1" connectable="0" parent="6B9bChOiJdNlk9qFFW37-21">
          <mxGeometry x="-0.3673" y="-1" relative="1" as="geometry">
            <mxPoint x="16" y="-29" as="offset" />
          </mxGeometry>
        </mxCell>
        <mxCell id="6B9bChOiJdNlk9qFFW37-23" value="" style="endArrow=classic;html=1;rounded=0;exitX=0.5;exitY=1;exitDx=0;exitDy=0;entryX=1;entryY=0.5;entryDx=0;entryDy=0;" edge="1" parent="1" source="yR7tkj6IJm981keGcS-7-25" target="6B9bChOiJdNlk9qFFW37-20">
          <mxGeometry width="50" height="50" relative="1" as="geometry">
            <mxPoint x="1181" y="310" as="sourcePoint" />
            <mxPoint x="1241" y="375" as="targetPoint" />
            <Array as="points">
              <mxPoint x="1158" y="385" />
            </Array>
          </mxGeometry>
        </mxCell>
        <mxCell id="6B9bChOiJdNlk9qFFW37-24" value="OUI" style="edgeLabel;html=1;align=center;verticalAlign=middle;resizable=0;points=[];" vertex="1" connectable="0" parent="6B9bChOiJdNlk9qFFW37-23">
          <mxGeometry x="-0.3673" y="-1" relative="1" as="geometry">
            <mxPoint x="16" y="-29" as="offset" />
          </mxGeometry>
        </mxCell>
        <mxCell id="6B9bChOiJdNlk9qFFW37-25" value="Clique sur créer&amp;nbsp;&lt;div&gt;une question&lt;span style=&quot;background-color: transparent; color: light-dark(rgb(0, 0, 0), rgb(255, 255, 255));&quot;&gt;&amp;nbsp;?&lt;/span&gt;&lt;/div&gt;" style="rhombus;whiteSpace=wrap;html=1;" vertex="1" parent="1">
          <mxGeometry x="900" y="480" width="115" height="120" as="geometry" />
        </mxCell>
        <mxCell id="6B9bChOiJdNlk9qFFW37-26" value="" style="endArrow=classic;html=1;rounded=0;exitX=0.5;exitY=1;exitDx=0;exitDy=0;entryX=0.5;entryY=0;entryDx=0;entryDy=0;" edge="1" parent="1" source="6B9bChOiJdNlk9qFFW37-20" target="6B9bChOiJdNlk9qFFW37-25">
          <mxGeometry width="50" height="50" relative="1" as="geometry">
            <mxPoint x="1080" y="422.5" as="sourcePoint" />
            <mxPoint x="970" y="440" as="targetPoint" />
            <Array as="points">
              <mxPoint x="1084" y="440" />
              <mxPoint x="958" y="440" />
            </Array>
          </mxGeometry>
        </mxCell>
        <mxCell id="6B9bChOiJdNlk9qFFW37-31" value="Clique sur&amp;nbsp;&lt;div&gt;supprimer une question?&lt;/div&gt;" style="rhombus;whiteSpace=wrap;html=1;" vertex="1" parent="1">
          <mxGeometry x="1229.75" y="480" width="115" height="120" as="geometry" />
        </mxCell>
        <mxCell id="6B9bChOiJdNlk9qFFW37-33" value="Clique sur&amp;nbsp;&lt;div&gt;éditer une&amp;nbsp;&lt;/div&gt;&lt;div&gt;question ?&lt;/div&gt;" style="rhombus;whiteSpace=wrap;html=1;" vertex="1" parent="1">
          <mxGeometry x="1399.75" y="480" width="115" height="120" as="geometry" />
        </mxCell>
        <mxCell id="6B9bChOiJdNlk9qFFW37-34" value="" style="edgeStyle=orthogonalEdgeStyle;rounded=0;orthogonalLoop=1;jettySize=auto;html=1;exitX=1;exitY=0.5;exitDx=0;exitDy=0;" edge="1" parent="1" source="6B9bChOiJdNlk9qFFW37-31">
          <mxGeometry relative="1" as="geometry">
            <mxPoint x="1489.75" y="590" as="sourcePoint" />
            <mxPoint x="1399.75" y="540" as="targetPoint" />
          </mxGeometry>
        </mxCell>
        <mxCell id="6B9bChOiJdNlk9qFFW37-35" value="NON" style="edgeLabel;html=1;align=center;verticalAlign=middle;resizable=0;points=[];" vertex="1" connectable="0" parent="6B9bChOiJdNlk9qFFW37-34">
          <mxGeometry x="-0.1636" y="-3" relative="1" as="geometry">
            <mxPoint y="7" as="offset" />
          </mxGeometry>
        </mxCell>
        <mxCell id="6B9bChOiJdNlk9qFFW37-36" value="NON" style="edgeLabel;html=1;align=center;verticalAlign=middle;resizable=0;points=[];" vertex="1" connectable="0" parent="1">
          <mxGeometry x="1530" y="550" as="geometry" />
        </mxCell>
        <mxCell id="6B9bChOiJdNlk9qFFW37-37" value="OUI" style="edgeLabel;html=1;align=center;verticalAlign=middle;resizable=0;points=[];" vertex="1" connectable="0" parent="1">
          <mxGeometry x="1300.25" y="620" as="geometry" />
        </mxCell>
        <mxCell id="6B9bChOiJdNlk9qFFW37-38" value="OUI" style="edgeLabel;html=1;align=center;verticalAlign=middle;resizable=0;points=[];" vertex="1" connectable="0" parent="1">
          <mxGeometry x="1470.25" y="620" as="geometry" />
        </mxCell>
        <mxCell id="6B9bChOiJdNlk9qFFW37-40" value="" style="endArrow=none;html=1;rounded=0;exitX=1;exitY=0.5;exitDx=0;exitDy=0;" edge="1" parent="1" source="6B9bChOiJdNlk9qFFW37-33">
          <mxGeometry width="50" height="50" relative="1" as="geometry">
            <mxPoint x="1560" y="530" as="sourcePoint" />
            <mxPoint x="1600" y="440" as="targetPoint" />
            <Array as="points">
              <mxPoint x="1600" y="540" />
            </Array>
          </mxGeometry>
        </mxCell>
      </root>
    </mxGraphModel>
  </diagram>
  <diagram name="Diagramme Sequence" id="rSpdnzgoM3E7Hm55KwBY">
    <mxGraphModel dx="1009" dy="396" grid="1" gridSize="10" guides="1" tooltips="1" connect="1" arrows="1" fold="1" page="1" pageScale="1" pageWidth="827" pageHeight="1169" math="0" shadow="0">
      <root>
        <mxCell id="0" />
        <mxCell id="1" parent="0" />
        <mxCell id="70W50XEEyWBxM2nCulfQ-1" value="Client" style="rounded=0;whiteSpace=wrap;html=1;" vertex="1" parent="1">
          <mxGeometry x="50" y="50" width="120" height="30" as="geometry" />
        </mxCell>
        <mxCell id="70W50XEEyWBxM2nCulfQ-2" value="API" style="rounded=0;whiteSpace=wrap;html=1;" vertex="1" parent="1">
          <mxGeometry x="310" y="50" width="120" height="30" as="geometry" />
        </mxCell>
        <mxCell id="70W50XEEyWBxM2nCulfQ-3" value="Base de donnée" style="rounded=0;whiteSpace=wrap;html=1;" vertex="1" parent="1">
          <mxGeometry x="570" y="50" width="120" height="30" as="geometry" />
        </mxCell>
        <mxCell id="70W50XEEyWBxM2nCulfQ-4" value="" style="endArrow=none;dashed=1;html=1;rounded=0;entryX=0.5;entryY=1;entryDx=0;entryDy=0;" edge="1" parent="1" target="70W50XEEyWBxM2nCulfQ-1">
          <mxGeometry width="50" height="50" relative="1" as="geometry">
            <mxPoint x="110" y="360" as="sourcePoint" />
            <mxPoint x="420" y="270" as="targetPoint" />
          </mxGeometry>
        </mxCell>
        <mxCell id="70W50XEEyWBxM2nCulfQ-5" value="" style="endArrow=none;dashed=1;html=1;rounded=0;entryX=0.5;entryY=1;entryDx=0;entryDy=0;" edge="1" parent="1" source="70W50XEEyWBxM2nCulfQ-8">
          <mxGeometry width="50" height="50" relative="1" as="geometry">
            <mxPoint x="369.5" y="550" as="sourcePoint" />
            <mxPoint x="369.5" y="80" as="targetPoint" />
          </mxGeometry>
        </mxCell>
        <mxCell id="70W50XEEyWBxM2nCulfQ-6" value="" style="endArrow=none;dashed=1;html=1;rounded=0;entryX=0.5;entryY=1;entryDx=0;entryDy=0;" edge="1" parent="1" source="70W50XEEyWBxM2nCulfQ-10">
          <mxGeometry width="50" height="50" relative="1" as="geometry">
            <mxPoint x="629.5" y="550" as="sourcePoint" />
            <mxPoint x="629.5" y="80" as="targetPoint" />
          </mxGeometry>
        </mxCell>
        <mxCell id="70W50XEEyWBxM2nCulfQ-7" value="" style="html=1;points=[[0,0,0,0,5],[0,1,0,0,-5],[1,0,0,0,5],[1,1,0,0,-5]];perimeter=orthogonalPerimeter;outlineConnect=0;targetShapes=umlLifeline;portConstraint=eastwest;newEdgeStyle={&quot;curved&quot;:0,&quot;rounded&quot;:0};" vertex="1" parent="1">
          <mxGeometry x="105" y="100" width="10" height="60" as="geometry" />
        </mxCell>
        <mxCell id="70W50XEEyWBxM2nCulfQ-9" value="" style="endArrow=none;dashed=1;html=1;rounded=0;entryX=0.5;entryY=1;entryDx=0;entryDy=0;" edge="1" parent="1" target="70W50XEEyWBxM2nCulfQ-8">
          <mxGeometry width="50" height="50" relative="1" as="geometry">
            <mxPoint x="370" y="360" as="sourcePoint" />
            <mxPoint x="369.5" y="80" as="targetPoint" />
          </mxGeometry>
        </mxCell>
        <mxCell id="70W50XEEyWBxM2nCulfQ-8" value="" style="html=1;points=[[0,0,0,0,5],[0,1,0,0,-5],[1,0,0,0,5],[1,1,0,0,-5]];perimeter=orthogonalPerimeter;outlineConnect=0;targetShapes=umlLifeline;portConstraint=eastwest;newEdgeStyle={&quot;curved&quot;:0,&quot;rounded&quot;:0};" vertex="1" parent="1">
          <mxGeometry x="365" y="100" width="10" height="60" as="geometry" />
        </mxCell>
        <mxCell id="70W50XEEyWBxM2nCulfQ-11" value="" style="endArrow=none;dashed=1;html=1;rounded=0;entryX=0.5;entryY=1;entryDx=0;entryDy=0;" edge="1" parent="1" target="70W50XEEyWBxM2nCulfQ-10">
          <mxGeometry width="50" height="50" relative="1" as="geometry">
            <mxPoint x="630" y="360" as="sourcePoint" />
            <mxPoint x="629.5" y="80" as="targetPoint" />
          </mxGeometry>
        </mxCell>
        <mxCell id="70W50XEEyWBxM2nCulfQ-10" value="" style="html=1;points=[[0,0,0,0,5],[0,1,0,0,-5],[1,0,0,0,5],[1,1,0,0,-5]];perimeter=orthogonalPerimeter;outlineConnect=0;targetShapes=umlLifeline;portConstraint=eastwest;newEdgeStyle={&quot;curved&quot;:0,&quot;rounded&quot;:0};" vertex="1" parent="1">
          <mxGeometry x="625" y="100" width="10" height="60" as="geometry" />
        </mxCell>
        <mxCell id="70W50XEEyWBxM2nCulfQ-12" value="" style="endArrow=classic;html=1;rounded=0;" edge="1" parent="1">
          <mxGeometry width="50" height="50" relative="1" as="geometry">
            <mxPoint x="115" y="120" as="sourcePoint" />
            <mxPoint x="365" y="120" as="targetPoint" />
          </mxGeometry>
        </mxCell>
        <mxCell id="70W50XEEyWBxM2nCulfQ-13" value="gestion du questionnaire" style="edgeLabel;html=1;align=center;verticalAlign=middle;resizable=0;points=[];" vertex="1" connectable="0" parent="70W50XEEyWBxM2nCulfQ-12">
          <mxGeometry x="0.0183" y="-1" relative="1" as="geometry">
            <mxPoint x="-12" y="-21" as="offset" />
          </mxGeometry>
        </mxCell>
        <mxCell id="70W50XEEyWBxM2nCulfQ-14" value="" style="endArrow=classic;html=1;rounded=0;" edge="1" parent="1">
          <mxGeometry width="50" height="50" relative="1" as="geometry">
            <mxPoint x="375" y="120" as="sourcePoint" />
            <mxPoint x="625" y="120" as="targetPoint" />
          </mxGeometry>
        </mxCell>
        <mxCell id="70W50XEEyWBxM2nCulfQ-16" value="Requête SQL" style="edgeLabel;html=1;align=center;verticalAlign=middle;resizable=0;points=[];" vertex="1" connectable="0" parent="70W50XEEyWBxM2nCulfQ-14">
          <mxGeometry x="-0.5153" y="1" relative="1" as="geometry">
            <mxPoint x="65" y="-9" as="offset" />
          </mxGeometry>
        </mxCell>
        <mxCell id="70W50XEEyWBxM2nCulfQ-17" value="return réponse" style="html=1;verticalAlign=bottom;endArrow=open;dashed=1;endSize=8;curved=0;rounded=0;" edge="1" parent="1">
          <mxGeometry relative="1" as="geometry">
            <mxPoint x="625" y="150" as="sourcePoint" />
            <mxPoint x="375" y="150" as="targetPoint" />
          </mxGeometry>
        </mxCell>
        <mxCell id="70W50XEEyWBxM2nCulfQ-18" value="return data" style="html=1;verticalAlign=bottom;endArrow=open;dashed=1;endSize=8;curved=0;rounded=0;" edge="1" parent="1">
          <mxGeometry relative="1" as="geometry">
            <mxPoint x="365" y="150" as="sourcePoint" />
            <mxPoint x="115" y="150" as="targetPoint" />
          </mxGeometry>
        </mxCell>
        <mxCell id="70W50XEEyWBxM2nCulfQ-19" value="" style="html=1;points=[[0,0,0,0,5],[0,1,0,0,-5],[1,0,0,0,5],[1,1,0,0,-5]];perimeter=orthogonalPerimeter;outlineConnect=0;targetShapes=umlLifeline;portConstraint=eastwest;newEdgeStyle={&quot;curved&quot;:0,&quot;rounded&quot;:0};" vertex="1" parent="1">
          <mxGeometry x="105" y="180" width="10" height="60" as="geometry" />
        </mxCell>
        <mxCell id="70W50XEEyWBxM2nCulfQ-20" value="" style="html=1;points=[[0,0,0,0,5],[0,1,0,0,-5],[1,0,0,0,5],[1,1,0,0,-5]];perimeter=orthogonalPerimeter;outlineConnect=0;targetShapes=umlLifeline;portConstraint=eastwest;newEdgeStyle={&quot;curved&quot;:0,&quot;rounded&quot;:0};" vertex="1" parent="1">
          <mxGeometry x="365" y="180" width="10" height="60" as="geometry" />
        </mxCell>
        <mxCell id="70W50XEEyWBxM2nCulfQ-21" value="" style="html=1;points=[[0,0,0,0,5],[0,1,0,0,-5],[1,0,0,0,5],[1,1,0,0,-5]];perimeter=orthogonalPerimeter;outlineConnect=0;targetShapes=umlLifeline;portConstraint=eastwest;newEdgeStyle={&quot;curved&quot;:0,&quot;rounded&quot;:0};" vertex="1" parent="1">
          <mxGeometry x="625" y="180" width="10" height="60" as="geometry" />
        </mxCell>
        <mxCell id="70W50XEEyWBxM2nCulfQ-22" value="" style="endArrow=classic;html=1;rounded=0;" edge="1" parent="1">
          <mxGeometry width="50" height="50" relative="1" as="geometry">
            <mxPoint x="115" y="200" as="sourcePoint" />
            <mxPoint x="365" y="200" as="targetPoint" />
          </mxGeometry>
        </mxCell>
        <mxCell id="70W50XEEyWBxM2nCulfQ-23" value="gestion d&#39;un question" style="edgeLabel;html=1;align=center;verticalAlign=middle;resizable=0;points=[];" vertex="1" connectable="0" parent="70W50XEEyWBxM2nCulfQ-22">
          <mxGeometry x="0.0183" y="-1" relative="1" as="geometry">
            <mxPoint y="-11" as="offset" />
          </mxGeometry>
        </mxCell>
        <mxCell id="70W50XEEyWBxM2nCulfQ-24" value="" style="endArrow=classic;html=1;rounded=0;" edge="1" parent="1">
          <mxGeometry width="50" height="50" relative="1" as="geometry">
            <mxPoint x="375" y="200" as="sourcePoint" />
            <mxPoint x="625" y="200" as="targetPoint" />
          </mxGeometry>
        </mxCell>
        <mxCell id="70W50XEEyWBxM2nCulfQ-25" value="Requête SQL" style="edgeLabel;html=1;align=center;verticalAlign=middle;resizable=0;points=[];" vertex="1" connectable="0" parent="70W50XEEyWBxM2nCulfQ-24">
          <mxGeometry x="-0.5153" y="1" relative="1" as="geometry">
            <mxPoint x="65" y="-9" as="offset" />
          </mxGeometry>
        </mxCell>
        <mxCell id="70W50XEEyWBxM2nCulfQ-26" value="return réponse" style="html=1;verticalAlign=bottom;endArrow=open;dashed=1;endSize=8;curved=0;rounded=0;" edge="1" parent="1">
          <mxGeometry relative="1" as="geometry">
            <mxPoint x="625" y="230" as="sourcePoint" />
            <mxPoint x="375" y="230" as="targetPoint" />
          </mxGeometry>
        </mxCell>
        <mxCell id="70W50XEEyWBxM2nCulfQ-27" value="return data" style="html=1;verticalAlign=bottom;endArrow=open;dashed=1;endSize=8;curved=0;rounded=0;" edge="1" parent="1">
          <mxGeometry relative="1" as="geometry">
            <mxPoint x="365" y="230" as="sourcePoint" />
            <mxPoint x="115" y="230" as="targetPoint" />
          </mxGeometry>
        </mxCell>
        <mxCell id="70W50XEEyWBxM2nCulfQ-28" value="" style="html=1;points=[[0,0,0,0,5],[0,1,0,0,-5],[1,0,0,0,5],[1,1,0,0,-5]];perimeter=orthogonalPerimeter;outlineConnect=0;targetShapes=umlLifeline;portConstraint=eastwest;newEdgeStyle={&quot;curved&quot;:0,&quot;rounded&quot;:0};" vertex="1" parent="1">
          <mxGeometry x="105" y="260" width="10" height="60" as="geometry" />
        </mxCell>
        <mxCell id="70W50XEEyWBxM2nCulfQ-29" value="" style="html=1;points=[[0,0,0,0,5],[0,1,0,0,-5],[1,0,0,0,5],[1,1,0,0,-5]];perimeter=orthogonalPerimeter;outlineConnect=0;targetShapes=umlLifeline;portConstraint=eastwest;newEdgeStyle={&quot;curved&quot;:0,&quot;rounded&quot;:0};" vertex="1" parent="1">
          <mxGeometry x="365" y="260" width="10" height="60" as="geometry" />
        </mxCell>
        <mxCell id="70W50XEEyWBxM2nCulfQ-30" value="" style="html=1;points=[[0,0,0,0,5],[0,1,0,0,-5],[1,0,0,0,5],[1,1,0,0,-5]];perimeter=orthogonalPerimeter;outlineConnect=0;targetShapes=umlLifeline;portConstraint=eastwest;newEdgeStyle={&quot;curved&quot;:0,&quot;rounded&quot;:0};" vertex="1" parent="1">
          <mxGeometry x="625" y="260" width="10" height="60" as="geometry" />
        </mxCell>
        <mxCell id="70W50XEEyWBxM2nCulfQ-31" value="" style="endArrow=classic;html=1;rounded=0;" edge="1" parent="1">
          <mxGeometry width="50" height="50" relative="1" as="geometry">
            <mxPoint x="115" y="280" as="sourcePoint" />
            <mxPoint x="365" y="280" as="targetPoint" />
          </mxGeometry>
        </mxCell>
        <mxCell id="70W50XEEyWBxM2nCulfQ-32" value="gestion d&#39;une réponse" style="edgeLabel;html=1;align=center;verticalAlign=middle;resizable=0;points=[];" vertex="1" connectable="0" parent="70W50XEEyWBxM2nCulfQ-31">
          <mxGeometry x="0.0183" y="-1" relative="1" as="geometry">
            <mxPoint y="-11" as="offset" />
          </mxGeometry>
        </mxCell>
        <mxCell id="70W50XEEyWBxM2nCulfQ-33" value="" style="endArrow=classic;html=1;rounded=0;" edge="1" parent="1">
          <mxGeometry width="50" height="50" relative="1" as="geometry">
            <mxPoint x="375" y="280" as="sourcePoint" />
            <mxPoint x="625" y="280" as="targetPoint" />
          </mxGeometry>
        </mxCell>
        <mxCell id="70W50XEEyWBxM2nCulfQ-34" value="Requête SQL" style="edgeLabel;html=1;align=center;verticalAlign=middle;resizable=0;points=[];" vertex="1" connectable="0" parent="70W50XEEyWBxM2nCulfQ-33">
          <mxGeometry x="-0.5153" y="1" relative="1" as="geometry">
            <mxPoint x="65" y="-9" as="offset" />
          </mxGeometry>
        </mxCell>
        <mxCell id="70W50XEEyWBxM2nCulfQ-35" value="return réponse" style="html=1;verticalAlign=bottom;endArrow=open;dashed=1;endSize=8;curved=0;rounded=0;" edge="1" parent="1">
          <mxGeometry relative="1" as="geometry">
            <mxPoint x="625" y="310" as="sourcePoint" />
            <mxPoint x="375" y="310" as="targetPoint" />
          </mxGeometry>
        </mxCell>
        <mxCell id="70W50XEEyWBxM2nCulfQ-36" value="return data" style="html=1;verticalAlign=bottom;endArrow=open;dashed=1;endSize=8;curved=0;rounded=0;" edge="1" parent="1">
          <mxGeometry x="-0.0012" relative="1" as="geometry">
            <mxPoint x="365" y="310" as="sourcePoint" />
            <mxPoint x="115" y="310" as="targetPoint" />
            <mxPoint as="offset" />
          </mxGeometry>
        </mxCell>
      </root>
    </mxGraphModel>
  </diagram>
  <diagram id="DWCYYFjh_aCgCcyeS-kj" name="Diagramme Utilisation">
    <mxGraphModel dx="2302" dy="680" grid="1" gridSize="10" guides="1" tooltips="1" connect="1" arrows="1" fold="1" page="1" pageScale="1" pageWidth="827" pageHeight="1169" math="0" shadow="0">
      <root>
        <mxCell id="0" />
        <mxCell id="1" parent="0" />
        <mxCell id="ra8e7mQZ3N5T0Y5vfRkf-1" value="Diagramme d&#39;utilisation" style="shape=umlFrame;whiteSpace=wrap;html=1;pointerEvents=0;width=90;height=40;" vertex="1" parent="1">
          <mxGeometry x="-693" y="280" width="560" height="600" as="geometry" />
        </mxCell>
        <mxCell id="ra8e7mQZ3N5T0Y5vfRkf-2" value="" style="rounded=1;whiteSpace=wrap;html=1;" vertex="1" parent="1">
          <mxGeometry x="-548" y="360" width="270" height="495" as="geometry" />
        </mxCell>
        <mxCell id="ra8e7mQZ3N5T0Y5vfRkf-3" value="Administrateur" style="shape=umlActor;verticalLabelPosition=bottom;verticalAlign=top;html=1;outlineConnect=0;" vertex="1" parent="1">
          <mxGeometry x="-633" y="460" width="30" height="60" as="geometry" />
        </mxCell>
        <mxCell id="ra8e7mQZ3N5T0Y5vfRkf-4" value="Participant" style="shape=umlActor;verticalLabelPosition=bottom;verticalAlign=top;html=1;outlineConnect=0;" vertex="1" parent="1">
          <mxGeometry x="-633" y="770" width="30" height="60" as="geometry" />
        </mxCell>
        <mxCell id="ra8e7mQZ3N5T0Y5vfRkf-5" value="Répondre au questionnaire" style="ellipse;whiteSpace=wrap;html=1;" vertex="1" parent="1">
          <mxGeometry x="-473" y="770" width="120" height="60" as="geometry" />
        </mxCell>
        <mxCell id="ra8e7mQZ3N5T0Y5vfRkf-6" value="Creer, voir, editer, supprimer un questionnaire" style="ellipse;whiteSpace=wrap;html=1;" vertex="1" parent="1">
          <mxGeometry x="-473" y="380" width="120" height="70" as="geometry" />
        </mxCell>
        <mxCell id="ra8e7mQZ3N5T0Y5vfRkf-7" value="Creer, voir, editer, supprimer une question" style="ellipse;whiteSpace=wrap;html=1;" vertex="1" parent="1">
          <mxGeometry x="-473" y="470" width="120" height="70" as="geometry" />
        </mxCell>
        <mxCell id="ra8e7mQZ3N5T0Y5vfRkf-8" value="Creer, voir, editer, supprimer une réponse" style="ellipse;whiteSpace=wrap;html=1;" vertex="1" parent="1">
          <mxGeometry x="-473" y="560" width="120" height="70" as="geometry" />
        </mxCell>
        <mxCell id="ra8e7mQZ3N5T0Y5vfRkf-9" value="" style="endArrow=none;html=1;rounded=0;entryX=0;entryY=0.5;entryDx=0;entryDy=0;" edge="1" parent="1" source="ra8e7mQZ3N5T0Y5vfRkf-3" target="ra8e7mQZ3N5T0Y5vfRkf-6">
          <mxGeometry width="50" height="50" relative="1" as="geometry">
            <mxPoint x="-283" y="610" as="sourcePoint" />
            <mxPoint x="-233" y="560" as="targetPoint" />
          </mxGeometry>
        </mxCell>
        <mxCell id="ra8e7mQZ3N5T0Y5vfRkf-10" value="" style="endArrow=none;html=1;rounded=0;entryX=0;entryY=0.5;entryDx=0;entryDy=0;" edge="1" parent="1" source="ra8e7mQZ3N5T0Y5vfRkf-3" target="ra8e7mQZ3N5T0Y5vfRkf-7">
          <mxGeometry width="50" height="50" relative="1" as="geometry">
            <mxPoint x="-563" y="527" as="sourcePoint" />
            <mxPoint x="-433" y="460" as="targetPoint" />
          </mxGeometry>
        </mxCell>
        <mxCell id="ra8e7mQZ3N5T0Y5vfRkf-11" value="" style="endArrow=none;html=1;rounded=0;entryX=0;entryY=0.5;entryDx=0;entryDy=0;" edge="1" parent="1" source="ra8e7mQZ3N5T0Y5vfRkf-3" target="ra8e7mQZ3N5T0Y5vfRkf-8">
          <mxGeometry width="50" height="50" relative="1" as="geometry">
            <mxPoint x="-503" y="607" as="sourcePoint" />
            <mxPoint x="-373" y="540" as="targetPoint" />
          </mxGeometry>
        </mxCell>
        <mxCell id="ra8e7mQZ3N5T0Y5vfRkf-12" value="" style="endArrow=none;html=1;rounded=0;entryX=0;entryY=0.5;entryDx=0;entryDy=0;" edge="1" parent="1" source="ra8e7mQZ3N5T0Y5vfRkf-4" target="ra8e7mQZ3N5T0Y5vfRkf-5">
          <mxGeometry width="50" height="50" relative="1" as="geometry">
            <mxPoint x="-533" y="817" as="sourcePoint" />
            <mxPoint x="-403" y="750" as="targetPoint" />
          </mxGeometry>
        </mxCell>
      </root>
    </mxGraphModel>
  </diagram>
</mxfile>
